# xmcd
#
# Track frame offsets:
#	150
#	11022
#	23369
#	36721
#	51963
#	65790
#	85697
#	98654
#	109381
#	119583
#	133005
#	144162
#	159589
#	170811
#	183613
#	197330
#	211827
#	224464
#	234911
#	250598
#	270360
#	284282
#	296874
#	313831
#	325208
#
# Disc length: 4488 seconds
#
# Revision: 0
# Processed by: cddbd v1.5.1PL0 Copyright (c) Steve Scherf et al.
# Submitted via: audiograbber 1.83.01
#
DISCID=76118619
DTITLE=Conway Twitty - The Very Best of Conway
DYEAR=1900
DGENRE=Country
TTITLE0=Hello Darlin
TTITLE1=Linda on my Mind
TTITLE2=The Image of Me
TTITLE3=Georgia Keeps Pulling on my Ring
TTITLE4=Danny Boy
TTITLE5=Don't Cry Joni
TTITLE6=I Can't Stop loving You
TTITLE7=It's Only Make Believe
TTITLE8=Lonely Blue Boy
TTITLE9=There's A Honky Tony Angel
TTITLE10=She Gives it all to Me
TTITLE11=Paly Guitar Play
TTITLE12=This Time i Hunt Her More
TTITLE13=I've Already Loved you in my Mind
TTITLE14=You've Never Been This Far Before
TTITLE15=Lost in the Feeling
TTITLE16=The Best is yet to Come
TTITLE17=You've Got a Good Love Coming
TTITLE18=We're so close 
TTITLE19=Hearache Tinight
TTITLE20=A strangers Point of View
TTITLE21=I Think I'M in Love
TTITLE22=Three Times a Lady
TTITLE23=Frist Things First
TTITLE24=Don't it feel Good
EXTD=
EXTT0=
EXTT1=
EXTT2=
EXTT3=
EXTT4=
EXTT5=
EXTT6=
EXTT7=
EXTT8=
EXTT9=
EXTT10=
EXTT11=
EXTT12=
EXTT13=
EXTT14=
EXTT15=
EXTT16=
EXTT17=
EXTT18=
EXTT19=
EXTT20=
EXTT21=
EXTT22=
EXTT23=
EXTT24=
PLAYORDER=
